<svg xmlns="http://www.w3.org/2000/svg" width="1201" height="1024"><path fill="#9bb537" d="M229.517 406.069h741.517v564.966H229.517V406.069z"/><path fill="#9bb537" d="M529.655 370.759c0 146.261-118.567 264.828-264.828 264.828S-.001 517.02-.001 370.759c0-146.261 118.567-264.828 264.828-264.828s264.828 118.567 264.828 264.828z"/><path fill="#9bb537" d="M865.103 264.828c0 146.261-118.567 264.828-264.828 264.828S335.447 411.089 335.447 264.828C335.447 118.568 454.014 0 600.275 0s264.828 118.567 264.828 264.828z"/><path fill="#9bb537" d="M1200.552 370.759c0 146.261-118.567 264.828-264.828 264.828S670.896 517.02 670.896 370.759c0-146.261 118.567-264.828 264.828-264.828s264.828 118.567 264.828 264.828z"/><path fill="#f8f8f8" d="M459.034 334.813c0-19.151 11.857-34.675 26.483-34.675S512 315.662 512 334.813v160.168c0 19.151-11.857 34.675-26.483 34.675s-26.483-15.524-26.483-34.675V334.813zM547.31 334.813c0-19.151 19.761-34.675 44.138-34.675s44.138 15.524 44.138 34.675v160.168c0 19.151-19.761 34.675-44.138 34.675s-44.138-15.524-44.138-34.675V334.813zM670.897 334.813c0-19.151 15.808-34.675 35.31-34.675s35.31 15.524 35.31 34.675v160.168c0 19.151-15.808 34.675-35.31 34.675s-35.31-15.524-35.31-34.675V334.813z"/><path fill="#050505" d="M901.897 100.193a271.517 271.517 0 0 1 28.089-1.452c118.849 0 219.544 77.203 254.023 183.87a271.526 271.526 0 0 1-28.091 1.453c-118.848 0-219.542-77.203-254.021-183.872z"/></svg>