<svg xmlns="http://www.w3.org/2000/svg" aria-hidden="true" style="width:0;height:0;position:absolute;overflow:hidden"><defs><symbol id="search" viewBox="0 0 32 32"><path d="M30.565 28.436 25 22.916a13.5 13.5 0 1 0-2.086 2.086l5.52 5.52a1.483 1.483 0 0 0 1.065.443 1.504 1.504 0 0 0 1.065-.443 1.503 1.503 0 0 0 0-2.085zM14.5 25.001a10.494 10.494 0 0 1-9.7-6.482A10.5 10.5 0 1 1 14.501 25z"/></symbol><symbol id="icon-x" viewBox="0 0 32 32"><path d="M18.828 16 31.414 3.414A2 2 0 1 0 28.586.586L16 13.172 3.414.586A2 2 0 1 0 .586 3.414L13.172 16 .586 28.586a2 2 0 1 0 2.828 2.828L16 18.828l12.586 12.586a2 2 0 1 0 2.828-2.828z"/></symbol></defs></svg>