<svg aria-hidden="true" style="width:0;height:0;position:absolute;overflow:hidden" xmlns="http://www.w3.org/2000/svg"><defs><symbol id="icon-arrow-up" viewBox="0 0 32 32"><path d="M9.776 10.246A1.333 1.333 0 1 1 7.89 8.36l6.221-6.221a2.667 2.667 0 0 1 3.771 0l6.225 6.225a1.333 1.333 0 1 1-1.886 1.886l-4.888-4.888v23.971a1.333 1.333 0 0 1-2.666 0V5.355l-4.891 4.891z"/></symbol><symbol id="icon-arrow-left" viewBox="0 0 32 32"><path d="M18.776 23.63a1.212 1.212 0 0 1-1.715 0l-5.926-5.932a2.425 2.425 0 0 1 .001-3.429l5.929-5.929a1.214 1.214 0 0 1 1.715 1.715l-5.075 5.075a1.214 1.214 0 0 0 0 1.715l5.071 5.071a1.212 1.212 0 0 1 0 1.715z"/></symbol><symbol id="icon-arrow-right" viewBox="0 0 32 32"><path d="M13.224 23.63a1.212 1.212 0 0 0 1.715 0l5.926-5.932a2.425 2.425 0 0 0-.001-3.429L14.935 8.34a1.214 1.214 0 0 0-1.715 1.715l5.075 5.075a1.214 1.214 0 0 1 0 1.715l-5.071 5.071a1.212 1.212 0 0 0 0 1.715z"/></symbol><symbol id="icon-double-arrow-right" viewBox="0 0 32 32"><path d="M16.391 9.724a1.332 1.332 0 0 1 1.886 0l5.333 5.333a1.332 1.332 0 0 1 0 1.886l-5.333 5.333a1.333 1.333 0 0 1-1.884-1.886l4.39-4.39-4.391-4.391a1.332 1.332 0 0 1 0-1.886z"/><path d="M8.391 9.724a1.332 1.332 0 0 1 1.886 0l5.333 5.333a1.332 1.332 0 0 1 0 1.886l-5.333 5.333a1.333 1.333 0 0 1-1.884-1.886l4.39-4.39-4.391-4.391a1.332 1.332 0 0 1 0-1.886z"/></symbol><symbol id="icon-double-arrow-left" viewBox="0 0 32 32"><path d="M15.609 22.276a1.332 1.332 0 0 1-1.886 0L8.39 16.943a1.332 1.332 0 0 1 0-1.886l5.333-5.333a1.333 1.333 0 0 1 1.884 1.886L11.217 16l4.391 4.391a1.332 1.332 0 0 1 0 1.886z"/><path d="M23.609 22.276a1.332 1.332 0 0 1-1.886 0l-5.333-5.333a1.332 1.332 0 0 1 0-1.886l5.333-5.333a1.333 1.333 0 0 1 1.884 1.886L19.217 16l4.391 4.391a1.332 1.332 0 0 1 0 1.886z"/></symbol><symbol id="icon-close" viewBox="0 0 32 32"><path d="M27.661 4.438a1.333 1.333 0 0 0-1.886 0l-9.726 9.726-9.726-9.726a1.333 1.333 0 1 0-1.886 1.886l9.726 9.726-9.726 9.726a1.333 1.333 0 1 0 1.886 1.886l9.726-9.726 9.726 9.726a1.333 1.333 0 1 0 1.886-1.886l-9.726-9.726 9.726-9.726a1.333 1.333 0 0 0 0-1.886z"/></symbol><symbol id="icon-basket" viewBox="0 0 32 32"><path d="m28.04 14.111-19.338-.003-.811-2.79a1.258 1.258 0 0 0-.874-.858L4.18 9.693a1.25 1.25 0 0 0-1.41 1.83c.166.29.435.497.757.584l2.159.584 4.382 15.807a1.847 1.847 0 0 0 .819 3.505 1.85 1.85 0 0 0 1.848-1.848l-.001-.072h8.921l-.001.072c0 1.019.829 1.848 1.848 1.848s1.848-.829 1.848-1.848c0-.937-.712-1.722-1.623-1.834-2.217-.358-11.267-.796-11.267-.796l-.297-1.163h11.291c.577 0 1.091-.388 1.248-.943l2.44-8.596h.897a1.355 1.355 0 0 0 0-2.71zm-14.382 9.372h-2.117c-.058-.001-.143.012-.182-.124l-.118-.41-1.659-5.843c-.008-.028-.002-.06.016-.083s.046-.038.076-.038h2.572c.045 0 .083.031.093.074l1.403 6.282.005.019a.095.095 0 0 1-.09.123zM19.06 17.1l-1.143 6.309a.094.094 0 0 1-.093.074h-1.596a.095.095 0 0 1-.093-.074L14.992 17.1c-.006-.028 0-.057.019-.08s.045-.036.074-.036h3.883a.097.097 0 0 1 .093.116zm5.408.005-1.791 6.309a.095.095 0 0 1-.091.069h-2.19a.097.097 0 0 1-.093-.116l1.409-6.309a.096.096 0 0 1 .093-.074h2.572a.096.096 0 0 1 .092.121z"/><path d="M16.869 12.384a.699.699 0 0 0 1.199-.001l3.31-4.976a.7.7 0 0 0-.032-.744c-.145-.207-.369-.295-.615-.294h-.728l-1.149.001V1.388a1.39 1.39 0 0 0-2.778 0v4.984l-1.926.001a.7.7 0 0 0-.599 1.039l3.317 4.972z"/></symbol><symbol id="icon-lines" viewBox="0 0 32 32"><path stroke-linejoin="round" stroke-linecap="round" stroke-width="2" d="M28 13.333H4M28 8H4M28 18.667H4M28 24H4"/></symbol><symbol id="arrow-up-short" viewBox="0 0 16 16"><path fill-rule="evenodd" d="M8 12a.5.5 0 0 0 .5-.5V5.707l2.146 2.147a.5.5 0 0 0 .708-.708l-3-3a.5.5 0 0 0-.708 0l-3 3a.5.5 0 1 0 .708.708L7.5 5.707V11.5a.5.5 0 0 0 .5.5z"/></symbol></defs></svg>