<svg aria-hidden="true" style="width:0;height:0;position:absolute;overflow:hidden" xmlns="http://www.w3.org/2000/svg"><defs><symbol id="icon-arrow-up" viewBox="0 0 32 32"><path d="M9.776 10.246A1.333 1.333 0 1 1 7.89 8.36l6.221-6.221a2.667 2.667 0 0 1 3.771 0l6.225 6.225a1.333 1.333 0 1 1-1.886 1.886l-4.888-4.888v23.971a1.333 1.333 0 0 1-2.666 0V5.355l-4.891 4.891z"/></symbol><symbol id="icon-arrow-left" viewBox="0 0 32 32"><path d="M18.776 23.63a1.212 1.212 0 0 1-1.715 0l-5.926-5.932a2.425 2.425 0 0 1 .001-3.429l5.929-5.929a1.214 1.214 0 0 1 1.715 1.715l-5.075 5.075a1.214 1.214 0 0 0 0 1.715l5.071 5.071a1.212 1.212 0 0 1 0 1.715z"/></symbol><symbol id="icon-arrow-right" viewBox="0 0 32 32"><path d="M13.224 23.63a1.212 1.212 0 0 0 1.715 0l5.926-5.932a2.425 2.425 0 0 0-.001-3.429L14.935 8.34a1.214 1.214 0 0 0-1.715 1.715l5.075 5.075a1.214 1.214 0 0 1 0 1.715l-5.071 5.071a1.212 1.212 0 0 0 0 1.715z"/></symbol><symbol id="icon-double-arrow-right" viewBox="0 0 32 32"><path d="M16.391 9.724a1.332 1.332 0 0 1 1.886 0l5.333 5.333a1.332 1.332 0 0 1 0 1.886l-5.333 5.333a1.333 1.333 0 0 1-1.884-1.886l4.39-4.39-4.391-4.391a1.332 1.332 0 0 1 0-1.886z"/><path d="M8.391 9.724a1.332 1.332 0 0 1 1.886 0l5.333 5.333a1.332 1.332 0 0 1 0 1.886l-5.333 5.333a1.333 1.333 0 0 1-1.884-1.886l4.39-4.39-4.391-4.391a1.332 1.332 0 0 1 0-1.886z"/></symbol><symbol id="icon-double-arrow-left" viewBox="0 0 32 32"><path d="M15.609 22.276a1.332 1.332 0 0 1-1.886 0L8.39 16.943a1.332 1.332 0 0 1 0-1.886l5.333-5.333a1.333 1.333 0 0 1 1.884 1.886L11.217 16l4.391 4.391a1.332 1.332 0 0 1 0 1.886z"/><path d="M23.609 22.276a1.332 1.332 0 0 1-1.886 0l-5.333-5.333a1.332 1.332 0 0 1 0-1.886l5.333-5.333a1.333 1.333 0 0 1 1.884 1.886L19.217 16l4.391 4.391a1.332 1.332 0 0 1 0 1.886z"/></symbol><symbol id="icon-close" viewBox="0 0 32 32"><path d="M27.661 4.438a1.333 1.333 0 0 0-1.886 0l-9.726 9.726-9.726-9.726a1.333 1.333 0 1 0-1.886 1.886l9.726 9.726-9.726 9.726a1.333 1.333 0 1 0 1.886 1.886l9.726-9.726 9.726 9.726a1.333 1.333 0 1 0 1.886-1.886l-9.726-9.726 9.726-9.726a1.333 1.333 0 0 0 0-1.886z"/></symbol><symbol id="icon-basket" viewBox="0 0 32 32"><path stroke-linejoin="round" stroke-linecap="round" stroke-width="2.667" d="M12 29.333a1.333 1.333 0 1 0 0-2.667 1.333 1.333 0 0 0 0 2.667zM26.667 29.333a1.333 1.333 0 1 0 0-2.667 1.333 1.333 0 0 0 0 2.667z"/><path stroke-linejoin="round" stroke-linecap="round" stroke-width="2.4" d="M1.333 1.333h5.333l3.573 17.853a2.671 2.671 0 0 0 2.666 2.147h12.96a2.667 2.667 0 0 0 2.666-2.147l2.133-11.187H7.997"/></symbol><symbol id="icon-lines" viewBox="0 0 32 32"><path stroke-linejoin="round" stroke-linecap="round" stroke-width="2" d="M28 13.333H4M28 8H4M28 18.667H4M28 24H4"/></symbol></defs></svg>