<svg aria-hidden="true" style="width:0;height:0;position:absolute;overflow:hidden" xmlns="http://www.w3.org/2000/svg"><defs><symbol id="icon-shopping-cart" viewBox="0 0 32 32"><path stroke-linejoin="round" stroke-linecap="round" stroke-width="2.667" d="M12.008 29.352a1.334 1.334 0 1 0 0-2.668 1.334 1.334 0 1 0 0 2.668zm14.676 0a1.334 1.334 0 1 0 0-2.668 1.334 1.334 0 1 0 0 2.668z"/><path stroke-linejoin="round" stroke-linecap="round" stroke-width="2.4" d="M1.334 1.334h5.337l3.576 17.865a2.674 2.674 0 0 0 2.617 2.149l.054-.001h-.003 13.019c1.29 0 2.366-.915 2.614-2.131l.003-.017 2.135-11.194H8.005"/></symbol><symbol id="icon-burger" viewBox="0 0 31 32"><path stroke-linejoin="round" stroke-linecap="round" stroke-width="1.939" d="M27.159 13.419H3.878m23.281-5.174H3.878m23.281 10.348H3.878m23.281 5.173H3.878"/></symbol><symbol id="iconb" viewBox="0 0 32 32"><path d="M0 2h32v4H0zm0 6h32v4H0zm0 6h32v4H0zm0 6h32v4H0zm0 6h32v4H0z"/></symbol><symbol id="icon-x" viewBox="0 0 32 32"><path fill="none" stroke="#f8f8f8" style="stroke:var(--color1,#f8f8f8)" stroke-linejoin="round" stroke-linecap="round" stroke-width="2" d="M24 8 8 24M8 8l16 16"/></symbol><symbol id="icon-close" viewBox="0 0 32 32"><path d="M32 3.224 28.776 0 16 12.776 3.224 0 0 3.224 12.776 16 0 28.776 3.224 32 16 19.224 28.776 32 32 28.776 19.224 16 32 3.224z"/></symbol></defs></svg>